<svg width="232" height="62" viewBox="0 0 232 62" fill="none" xmlns="http://www.w3.org/2000/svg">
<rect x="2.5" y="2.5" width="66" height="57" stroke="black" stroke-width="5"/>
<path d="M91.9 41.175C90.6167 41.175 89.4667 40.9667 88.45 40.55C87.4333 40.1333 86.6167 39.5167 86 38.7C85.4 37.8833 85.0833 36.9 85.05 35.75H89.6C89.6667 36.4 89.8917 36.9 90.275 37.25C90.6583 37.5833 91.1583 37.75 91.775 37.75C92.4083 37.75 92.9083 37.6083 93.275 37.325C93.6417 37.025 93.825 36.6167 93.825 36.1C93.825 35.6667 93.675 35.3083 93.375 35.025C93.0917 34.7417 92.7333 34.5083 92.3 34.325C91.8833 34.1417 91.2833 33.9333 90.5 33.7C89.3667 33.35 88.4417 33 87.725 32.65C87.0083 32.3 86.3917 31.7833 85.875 31.1C85.3583 30.4167 85.1 29.525 85.1 28.425C85.1 26.7917 85.6917 25.5167 86.875 24.6C88.0583 23.6667 89.6 23.2 91.5 23.2C93.4333 23.2 94.9917 23.6667 96.175 24.6C97.3583 25.5167 97.9917 26.8 98.075 28.45H93.45C93.4167 27.8833 93.2083 27.4417 92.825 27.125C92.4417 26.7917 91.95 26.625 91.35 26.625C90.8333 26.625 90.4167 26.7667 90.1 27.05C89.7833 27.3167 89.625 27.7083 89.625 28.225C89.625 28.7917 89.8917 29.2333 90.425 29.55C90.9583 29.8667 91.7917 30.2083 92.925 30.575C94.0583 30.9583 94.975 31.325 95.675 31.675C96.3917 32.025 97.0083 32.5333 97.525 33.2C98.0417 33.8667 98.3 34.725 98.3 35.775C98.3 36.775 98.0417 37.6833 97.525 38.5C97.025 39.3167 96.2917 39.9667 95.325 40.45C94.3583 40.9333 93.2167 41.175 91.9 41.175ZM116.631 41H112.356L105.206 30.175V41H100.931V23.45H105.206L112.356 34.325V23.45H116.631V41ZM124.005 26.875V30.425H129.73V33.725H124.005V37.575H130.48V41H119.73V23.45H130.48V26.875H124.005ZM144.18 37.9H137.63L136.58 41H132.105L138.455 23.45H143.405L149.755 41H145.23L144.18 37.9ZM143.08 34.6L140.905 28.175L138.755 34.6H143.08ZM161.863 41L155.963 33.25V41H151.688V23.45H155.963V31.15L161.813 23.45H166.838L160.038 32.05L167.088 41H161.863ZM173.394 26.875V30.425H179.119V33.725H173.394V37.575H179.869V41H169.119V23.45H179.869V26.875H173.394ZM191.595 41L187.945 34.375H186.92V41H182.645V23.45H189.82C191.203 23.45 192.378 23.6917 193.345 24.175C194.328 24.6583 195.061 25.325 195.545 26.175C196.028 27.0083 196.27 27.9417 196.27 28.975C196.27 30.1417 195.936 31.1833 195.27 32.1C194.62 33.0167 193.653 33.6667 192.37 34.05L196.42 41H191.595ZM186.92 31.35H189.57C190.353 31.35 190.936 31.1583 191.32 30.775C191.72 30.3917 191.92 29.85 191.92 29.15C191.92 28.4833 191.72 27.9583 191.32 27.575C190.936 27.1917 190.353 27 189.57 27H186.92V31.35ZM205.303 41.175C204.02 41.175 202.87 40.9667 201.853 40.55C200.837 40.1333 200.02 39.5167 199.403 38.7C198.803 37.8833 198.487 36.9 198.453 35.75H203.003C203.07 36.4 203.295 36.9 203.678 37.25C204.062 37.5833 204.562 37.75 205.178 37.75C205.812 37.75 206.312 37.6083 206.678 37.325C207.045 37.025 207.228 36.6167 207.228 36.1C207.228 35.6667 207.078 35.3083 206.778 35.025C206.495 34.7417 206.137 34.5083 205.703 34.325C205.287 34.1417 204.687 33.9333 203.903 33.7C202.77 33.35 201.845 33 201.128 32.65C200.412 32.3 199.795 31.7833 199.278 31.1C198.762 30.4167 198.503 29.525 198.503 28.425C198.503 26.7917 199.095 25.5167 200.278 24.6C201.462 23.6667 203.003 23.2 204.903 23.2C206.837 23.2 208.395 23.6667 209.578 24.6C210.762 25.5167 211.395 26.8 211.478 28.45H206.853C206.82 27.8833 206.612 27.4417 206.228 27.125C205.845 26.7917 205.353 26.625 204.753 26.625C204.237 26.625 203.82 26.7667 203.503 27.05C203.187 27.3167 203.028 27.7083 203.028 28.225C203.028 28.7917 203.295 29.2333 203.828 29.55C204.362 29.8667 205.195 30.2083 206.328 30.575C207.462 30.9583 208.378 31.325 209.078 31.675C209.795 32.025 210.412 32.5333 210.928 33.2C211.445 33.8667 211.703 34.725 211.703 35.775C211.703 36.775 211.445 37.6833 210.928 38.5C210.428 39.3167 209.695 39.9667 208.728 40.45C207.762 40.9333 206.62 41.175 205.303 41.175Z" fill="black"/>
<g clip-path="url(#clip0_103_425)">
<path d="M26.6229 22.3253L23.8127 17.0486C23.534 16.5253 23.582 15.8882 23.9359 15.4126L26.8369 11.5128C27.4468 10.6929 28.674 10.6877 29.2905 11.5035L32.2375 15.4033C32.457 15.6939 32.5661 16.0528 32.545 16.4165C32.3941 19.0209 31.0027 21.4382 28.8233 22.8826C28.0703 23.3817 27.0486 23.1248 26.6229 22.3253Z" fill="#FFC72D"/>
<path d="M57.1035 30.1915C57.1035 30.1915 57.1035 30.1905 57.1026 30.1894C54.4593 22.5163 47.6319 20.6377 40.1276 17.9871C38.6054 17.4412 36.9055 16.8341 35.0001 16.1462C33.9155 15.7546 32.7645 15.3366 31.5419 14.8878C30.58 14.5352 29.5434 15.2108 29.4831 16.2391C29.4106 17.4944 28.881 18.6813 28.0224 19.5787C25.1653 22.5667 20.0695 21.2337 19.0953 17.1632C18.7049 15.5338 17.2758 14.396 15.6208 14.396H15.5656C13.5998 14.3961 12 15.9949 12 17.9616V35.3874C12 36.2339 12.6869 36.9208 13.5334 36.9208H56.4667C57.3131 36.9208 58.0001 36.2339 58.0001 35.3874C58 33.4988 57.6375 31.6497 57.1035 30.1915Z" fill="#3797D3"/>
<path d="M58 35.3874C58 36.2338 57.3131 36.9208 56.4666 36.9208H35V16.1461C36.9054 16.8341 38.6053 17.4413 40.1275 17.9871C48.2883 20.8695 54.5016 22.6389 57.1025 30.1894C57.1035 30.1904 57.1034 30.1915 57.1034 30.1915C57.6312 31.6323 58 33.487 58 35.3874Z" fill="#4881C2"/>
<path d="M23.867 30.3652H19.9006C19.0538 30.3652 18.3672 29.6787 18.3672 28.8318C18.3672 27.985 19.0537 27.2985 19.9006 27.2985H23.8671C24.7139 27.2985 25.4005 27.985 25.4005 28.8318C25.4005 29.6787 24.7139 30.3652 23.867 30.3652Z" fill="#4881C2"/>
<path d="M47.2043 36.9207H42.6309L25.153 21.1182C26.255 20.9231 27.2577 20.3784 28.0223 19.5787L47.2043 36.9207Z" fill="#4881C2"/>
<path d="M47.2043 36.9208L35 25.8872V30.0215L42.6309 36.9208H47.2043Z" fill="#2F66A3"/>
<path d="M57.9244 33.8541H12V41.5719C12 42.4193 12.6869 43.1052 13.5334 43.1052H56.4667C57.3131 43.1052 58.0001 42.4194 58.0001 41.5719V35.3874C58 34.9112 57.9831 34.4757 57.9244 33.8541Z" fill="#FFC72D"/>
<path d="M58 35.3875V41.572C58 42.4194 57.3131 43.1053 56.4666 43.1053H35V33.8541H57.9244C57.9745 34.3612 58 34.8723 58 35.3875Z" fill="#FFAF00"/>
</g>
<defs>
<clipPath id="clip0_103_425">
<rect width="46" height="46" fill="white" transform="translate(12 4)"/>
</clipPath>
</defs>
</svg>
